<svg width="49" height="39" viewBox="0 0 49 39" fill="none" xmlns="http://www.w3.org/2000/svg">
<path d="M27.6749 18.6191L27.6047 18.0497L28.0883 17.9639V13.8689L27.6047 13.8221V13.2293H29.3207L29.3909 13.8143L28.8839 13.8923V17.9795L29.3987 18.0419L29.3909 18.6191H27.6749ZM31.2593 18.6503C31.0929 18.6503 30.9447 18.6165 30.8147 18.5489C30.6847 18.4813 30.5833 18.3747 30.5105 18.2291C30.4377 18.0783 30.4013 17.8885 30.4013 17.6597L30.4169 15.4133H29.8085L29.6915 14.9141L29.7461 14.8361H30.4247L30.4325 13.5257L31.0799 13.3775L31.1423 13.4867L31.1345 14.8361H31.9457C31.9717 14.8361 31.9847 14.8517 31.9847 14.8829V15.4133H31.1345V17.6753C31.1345 17.8261 31.1579 17.9249 31.2047 17.9717C31.2567 18.0185 31.3295 18.0419 31.4231 18.0419C31.5219 18.0419 31.6207 18.0133 31.7195 17.9561C31.8183 17.8989 31.8885 17.8547 31.9301 17.8235L32.1017 18.3461C32.0341 18.4085 31.9275 18.4761 31.7819 18.5489C31.6363 18.6165 31.4621 18.6503 31.2593 18.6503ZM32.4699 18.6191L32.3997 18.1979L32.8521 18.0887V13.5179H32.4309L32.3607 13.0577L33.3279 12.9095L33.5775 13.1669V15.1247C33.6971 15.0415 33.8375 14.9739 33.9987 14.9219C34.1651 14.8647 34.3315 14.8361 34.4979 14.8361C34.7267 14.8361 34.9269 14.8751 35.0985 14.9531C35.2753 15.0311 35.4131 15.1507 35.5119 15.3119C35.6107 15.4679 35.66 15.6681 35.66 15.9125V18.0965L36.1124 18.1979L36.1046 18.6191H34.5213L34.5057 18.1979L34.9269 18.0965V16.0529C34.9269 15.8449 34.8775 15.6915 34.7787 15.5927C34.6851 15.4939 34.5473 15.4445 34.3653 15.4445C34.2093 15.4445 34.0585 15.4783 33.9129 15.5459C33.7673 15.6135 33.6555 15.6837 33.5775 15.7565V18.0965L34.0221 18.1901L34.0143 18.6191H32.4699ZM38.028 18.6503C37.8096 18.6503 37.6094 18.6113 37.4274 18.5333C37.2506 18.4501 37.1076 18.3201 36.9984 18.1433C36.8944 17.9665 36.8424 17.7325 36.8424 17.4413V15.4523H36.4368L36.3588 14.9999L37.3338 14.8205L37.5756 15.0779V17.3399C37.5756 17.4855 37.5938 17.6051 37.6302 17.6987C37.6718 17.7923 37.7238 17.8651 37.7862 17.9171C37.8538 17.9639 37.924 17.9977 37.9968 18.0185C38.0748 18.0341 38.1502 18.0419 38.223 18.0419C38.3634 18.0419 38.5012 18.0029 38.6364 17.9249C38.7768 17.8469 38.873 17.7559 38.925 17.6519V15.4367L38.535 15.4523L38.4648 14.9999L39.4164 14.8205L39.6504 15.0779V17.9171C39.6504 17.9847 39.666 18.0315 39.6972 18.0575C39.7284 18.0783 39.7622 18.0887 39.7986 18.0887C39.8298 18.0887 39.8558 18.0861 39.8766 18.0809C39.9026 18.0757 39.9182 18.0731 39.9234 18.0731L40.0326 18.4319C40.0014 18.4683 39.939 18.5151 39.8454 18.5723C39.7518 18.6243 39.6374 18.6503 39.5022 18.6503C39.3774 18.6503 39.2708 18.6217 39.1824 18.5645C39.094 18.5073 39.0264 18.4189 38.9796 18.2993C38.86 18.4137 38.7144 18.5021 38.5428 18.5645C38.3712 18.6217 38.1996 18.6503 38.028 18.6503ZM40.9738 18.6347L40.7788 18.5255V13.5023L40.342 13.5335L40.264 13.0577L41.2624 12.9095L41.5042 13.1669V15.0467C41.603 14.9843 41.7174 14.9349 41.8474 14.8985C41.9774 14.8569 42.1178 14.8361 42.2686 14.8361C42.5962 14.8361 42.8718 14.9167 43.0954 15.0779C43.3242 15.2391 43.4984 15.4601 43.618 15.7409C43.7376 16.0165 43.7974 16.3337 43.7974 16.6925C43.7974 17.0097 43.7558 17.2905 43.6726 17.5349C43.5894 17.7793 43.4724 17.9847 43.3216 18.1511C43.1708 18.3123 42.9914 18.4371 42.7834 18.5255C42.5806 18.6087 42.357 18.6503 42.1126 18.6503C41.967 18.6503 41.8266 18.6347 41.6914 18.6035C41.5562 18.5723 41.434 18.5281 41.3248 18.4709L40.9738 18.6347ZM42.1048 18.0575C42.3128 18.0575 42.487 18.0003 42.6274 17.8859C42.7678 17.7715 42.8718 17.6155 42.9394 17.4179C43.007 17.2203 43.0408 16.9915 43.0408 16.7315C43.0408 16.4871 43.007 16.2661 42.9394 16.0685C42.877 15.8709 42.7782 15.7149 42.643 15.6005C42.513 15.4861 42.3466 15.4289 42.1438 15.4289C42.0242 15.4289 41.9046 15.4549 41.785 15.5069C41.6654 15.5537 41.5718 15.6161 41.5042 15.6941V17.8859C41.577 17.9379 41.668 17.9795 41.7772 18.0107C41.8916 18.0419 42.0008 18.0575 42.1048 18.0575ZM28.9 24.6824C28.6151 24.6824 28.3698 24.6151 28.164 24.4806C27.9582 24.3461 27.8 24.1607 27.6892 23.9246C27.5784 23.6885 27.523 23.4188 27.523 23.1154C27.523 22.8068 27.5797 22.5344 27.6931 22.2983C27.8079 22.0609 27.9675 21.8756 28.1719 21.7424C28.3777 21.6078 28.6177 21.5406 28.8921 21.5406C29.1058 21.5406 29.2983 21.5801 29.4698 21.6593C29.6413 21.7384 29.7818 21.8492 29.8912 21.9917C30.0007 22.1341 30.0686 22.3003 30.095 22.4902H29.6281C29.5925 22.3517 29.5133 22.2291 29.3907 22.1222C29.2693 22.0141 29.1058 21.96 28.9 21.96C28.718 21.96 28.5584 22.0075 28.4212 22.1025C28.2854 22.1961 28.1792 22.3287 28.1027 22.5001C28.0275 22.6703 27.9899 22.8701 27.9899 23.0996C27.9899 23.3344 28.0268 23.5388 28.1007 23.7129C28.1759 23.8871 28.2814 24.0223 28.4173 24.1185C28.5544 24.2148 28.7153 24.263 28.9 24.263C29.0214 24.263 29.1315 24.2419 29.2304 24.1997C29.3293 24.1574 29.4131 24.0968 29.4817 24.0176C29.5503 23.9385 29.5991 23.8435 29.6281 23.7327H30.095C30.0686 23.9121 30.0033 24.0737 29.8991 24.2175C29.7963 24.3599 29.6597 24.4733 29.4896 24.5578C29.3208 24.6409 29.1242 24.6824 28.9 24.6824ZM32.2907 24.6824C32.0164 24.6824 31.7757 24.6171 31.5686 24.4865C31.3628 24.356 31.2019 24.1733 31.0858 23.9385C30.9711 23.7037 30.9137 23.4294 30.9137 23.1154C30.9137 22.7989 30.9711 22.5226 31.0858 22.2865C31.2019 22.0504 31.3628 21.867 31.5686 21.7364C31.7757 21.6059 32.0164 21.5406 32.2907 21.5406C32.5651 21.5406 32.8051 21.6059 33.0109 21.7364C33.218 21.867 33.3789 22.0504 33.4937 22.2865C33.6097 22.5226 33.6678 22.7989 33.6678 23.1154C33.6678 23.4294 33.6097 23.7037 33.4937 23.9385C33.3789 24.1733 33.218 24.356 33.0109 24.4865C32.8051 24.6171 32.5651 24.6824 32.2907 24.6824ZM32.2907 24.263C32.4991 24.263 32.6706 24.2095 32.8051 24.1027C32.9397 23.9959 33.0393 23.8554 33.1039 23.6813C33.1685 23.5072 33.2008 23.3186 33.2008 23.1154C33.2008 22.9123 33.1685 22.723 33.1039 22.5476C33.0393 22.3722 32.9397 22.2304 32.8051 22.1222C32.6706 22.0141 32.4991 21.96 32.2907 21.96C32.0823 21.96 31.9109 22.0141 31.7763 22.1222C31.6418 22.2304 31.5422 22.3722 31.4776 22.5476C31.4129 22.723 31.3806 22.9123 31.3806 23.1154C31.3806 23.3186 31.4129 23.5072 31.4776 23.6813C31.5422 23.8554 31.6418 23.9959 31.7763 24.1027C31.9109 24.2095 32.0823 24.263 32.2907 24.263ZM35.126 20.5672V24.6191H34.6591V20.5672H35.126ZM36.7267 20.5672V24.6191H36.2598V20.5672H36.7267ZM39.1346 24.6824C38.8418 24.6824 38.5892 24.6178 38.3769 24.4885C38.1658 24.3579 38.0029 24.1759 37.8882 23.9425C37.7747 23.7077 37.718 23.4346 37.718 23.1234C37.718 22.8121 37.7747 22.5377 37.8882 22.3003C38.0029 22.0616 38.1625 21.8756 38.367 21.7424C38.5727 21.6078 38.8128 21.5406 39.0871 21.5406C39.2454 21.5406 39.4017 21.5669 39.556 21.6197C39.7104 21.6725 39.8508 21.7582 39.9775 21.8769C40.1041 21.9943 40.205 22.1499 40.2802 22.3438C40.3553 22.5377 40.3929 22.7765 40.3929 23.06V23.2579H38.0504V22.8543H39.9181C39.9181 22.6828 39.8838 22.5298 39.8152 22.3953C39.748 22.2607 39.6517 22.1546 39.5264 22.0767C39.4024 21.9989 39.256 21.96 39.0871 21.96C38.9012 21.96 38.7402 22.0062 38.6044 22.0985C38.4698 22.1895 38.3663 22.3082 38.2938 22.4546C38.2212 22.601 38.1849 22.758 38.1849 22.9255V23.1946C38.1849 23.4241 38.2245 23.6186 38.3037 23.7782C38.3841 23.9365 38.4956 24.0572 38.638 24.1403C38.7805 24.2221 38.946 24.263 39.1346 24.263C39.2573 24.263 39.3681 24.2458 39.467 24.2115C39.5672 24.1759 39.6536 24.1232 39.7262 24.0532C39.7987 23.982 39.8548 23.8936 39.8944 23.7881L40.3455 23.9148C40.298 24.0678 40.2182 24.2023 40.1061 24.3184C39.9939 24.4331 39.8554 24.5228 39.6906 24.5874C39.5257 24.6508 39.3404 24.6824 39.1346 24.6824ZM42.6084 25.822C42.3829 25.822 42.189 25.793 42.0268 25.735C41.8645 25.6782 41.7293 25.6031 41.6212 25.5094C41.5143 25.4171 41.4293 25.3182 41.366 25.2126L41.7379 24.9515C41.7801 25.0069 41.8335 25.0702 41.8982 25.1414C41.9628 25.214 42.0512 25.2766 42.1633 25.3294C42.2767 25.3835 42.4251 25.4105 42.6084 25.4105C42.8538 25.4105 43.0562 25.3511 43.2158 25.2324C43.3754 25.1137 43.4552 24.9277 43.4552 24.6745V24.0572H43.4157C43.3814 24.1126 43.3326 24.1812 43.2693 24.263C43.2073 24.3434 43.1176 24.4153 43.0002 24.4786C42.8841 24.5406 42.7272 24.5716 42.5293 24.5716C42.284 24.5716 42.0637 24.5136 41.8685 24.3975C41.6746 24.2814 41.5209 24.1126 41.4075 23.891C41.2954 23.6694 41.2393 23.4003 41.2393 23.0838C41.2393 22.7725 41.2941 22.5015 41.4035 22.2706C41.513 22.0385 41.6654 21.8591 41.8606 21.7325C42.0558 21.6045 42.2813 21.5406 42.5372 21.5406C42.7351 21.5406 42.892 21.5735 43.0081 21.6395C43.1255 21.7041 43.2152 21.778 43.2772 21.8611C43.3405 21.9429 43.3893 22.0101 43.4236 22.0629H43.4711V21.5801H43.9222V24.7061C43.9222 24.9673 43.8628 25.1797 43.7441 25.3432C43.6267 25.5081 43.4684 25.6288 43.2693 25.7053C43.0714 25.7831 42.8511 25.822 42.6084 25.822ZM42.5926 24.1522C42.7799 24.1522 42.9382 24.1093 43.0675 24.0236C43.1967 23.9378 43.295 23.8145 43.3623 23.6536C43.4295 23.4927 43.4632 23.3001 43.4632 23.0759C43.4632 22.8569 43.4302 22.6637 43.3642 22.4962C43.2983 22.3287 43.2007 22.1974 43.0714 22.1025C42.9422 22.0075 42.7826 21.96 42.5926 21.96C42.3948 21.96 42.2299 22.0101 42.098 22.1104C41.9674 22.2106 41.8692 22.3452 41.8032 22.514C41.7386 22.6828 41.7063 22.8701 41.7063 23.0759C41.7063 23.2869 41.7392 23.4736 41.8052 23.6358C41.8725 23.7967 41.9714 23.9233 42.102 24.0157C42.2339 24.1067 42.3974 24.1522 42.5926 24.1522ZM46.3296 24.6824C46.0368 24.6824 45.7842 24.6178 45.5718 24.4885C45.3608 24.3579 45.1979 24.1759 45.0831 23.9425C44.9697 23.7077 44.913 23.4346 44.913 23.1234C44.913 22.8121 44.9697 22.5377 45.0831 22.3003C45.1979 22.0616 45.3575 21.8756 45.5619 21.7424C45.7677 21.6078 46.0078 21.5406 46.2821 21.5406C46.4404 21.5406 46.5967 21.5669 46.751 21.6197C46.9053 21.6725 47.0458 21.7582 47.1724 21.8769C47.299 21.9943 47.3999 22.1499 47.4751 22.3438C47.5503 22.5377 47.5879 22.7765 47.5879 23.06V23.2579H45.2454V22.8543H47.1131C47.1131 22.6828 47.0788 22.5298 47.0102 22.3953C46.9429 22.2607 46.8466 22.1546 46.7213 22.0767C46.5973 21.9989 46.4509 21.96 46.2821 21.96C46.0961 21.96 45.9352 22.0062 45.7994 22.0985C45.6648 22.1895 45.5613 22.3082 45.4887 22.4546C45.4162 22.601 45.3799 22.758 45.3799 22.9255V23.1946C45.3799 23.4241 45.4195 23.6186 45.4986 23.7782C45.5791 23.9365 45.6905 24.0572 45.833 24.1403C45.9754 24.2221 46.141 24.263 46.3296 24.263C46.4523 24.263 46.563 24.2458 46.662 24.2115C46.7622 24.1759 46.8486 24.1232 46.9212 24.0532C46.9937 23.982 47.0498 23.8936 47.0893 23.7881L47.5404 23.9148C47.4929 24.0678 47.4131 24.2023 47.301 24.3184C47.1889 24.4331 47.0504 24.5228 46.8855 24.5874C46.7207 24.6508 46.5353 24.6824 46.3296 24.6824Z" fill="white"/>
<rect x="4.58091" y="4.58104" width="2.22857" height="2.22857" fill="white"/>
<rect x="1.11428" y="1.11456" width="8.91427" height="8.91427" stroke="white" stroke-width="2.22857"/>
<rect x="28.3526" y="1.11428" width="8.91427" height="8.91427" stroke="white" stroke-width="2.22857"/>
<rect x="1.11432" y="28.3531" width="8.91427" height="8.91427" stroke="white" stroke-width="2.22857"/>
<rect x="28.3526" y="28.3531" width="8.91427" height="8.91427" stroke="white" stroke-width="2.22857"/>
</svg>
