<svg width="39" height="37" viewBox="0 0 39 37" fill="none" xmlns="http://www.w3.org/2000/svg">
<mask id="path-1-inside-1_37_6" fill="white">
<path fill-rule="evenodd" clip-rule="evenodd" d="M2 10H0V21H2V23H4V25H6V27H8V29H10V37H14V35H12V33H14V31H16V29H18V31H20V37H24V35H22V29H24V27H26V23H28V18H30V20.0678H32V16H28V12H35V10H28V8H39V1.88136H37V0H20V2H18V10H16V12H14L13.95 14H12V16H10V18H6V16H4V14H2V10ZM24 2H22V4H24V2Z"/>
</mask>
<path fill-rule="evenodd" clip-rule="evenodd" d="M2 10H0V21H2V23H4V25H6V27H8V29H10V37H14V35H12V33H14V31H16V29H18V31H20V37H24V35H22V29H24V27H26V23H28V18H30V20.0678H32V16H28V12H35V10H28V8H39V1.88136H37V0H20V2H18V10H16V12H14L13.95 14H12V16H10V18H6V16H4V14H2V10ZM24 2H22V4H24V2Z" fill="white"/>
<path d="M0 10V9.8H-0.2V10H0ZM2 10H2.2V9.8H2V10ZM0 21H-0.2V21.2H0V21ZM2 21H2.2V20.8H2V21ZM2 23H1.8V23.2H2V23ZM4 23H4.2V22.8H4V23ZM4 25H3.8V25.2H4V25ZM6 25H6.2V24.8H6V25ZM6 27H5.8V27.2H6V27ZM8 27H8.2V26.8H8V27ZM8 29H7.8V29.2H8V29ZM10 29H10.2V28.8H10V29ZM10 37H9.8V37.2H10V37ZM14 37V37.2H14.2V37H14ZM14 35H14.2V34.8H14V35ZM12 35H11.8V35.2H12V35ZM12 33V32.8H11.8V33H12ZM14 33V33.2H14.2V33H14ZM14 31V30.8H13.8V31H14ZM16 31V31.2H16.2V31H16ZM16 29V28.8H15.8V29H16ZM18 29H18.2V28.8H18V29ZM18 31H17.8V31.2H18V31ZM20 31H20.2V30.8H20V31ZM20 37H19.8V37.2H20V37ZM24 37V37.2H24.2V37H24ZM24 35H24.2V34.8H24V35ZM22 35H21.8V35.2H22V35ZM22 29V28.8H21.8V29H22ZM24 29V29.2H24.2V29H24ZM24 27V26.8H23.8V27H24ZM26 27V27.2H26.2V27H26ZM26 23V22.8H25.8V23H26ZM28 23V23.2H28.2V23H28ZM28 18V17.8H27.8V18H28ZM30 18H30.2V17.8H30V18ZM30 20.0678H29.8V20.2678H30V20.0678ZM32 20.0678V20.2678H32.2V20.0678H32ZM32 16H32.2V15.8H32V16ZM28 16H27.8V16.2H28V16ZM28 12V11.8H27.8V12H28ZM35 12V12.2H35.2V12H35ZM35 10H35.2V9.8H35V10ZM28 10H27.8V10.2H28V10ZM28 8V7.8H27.8V8H28ZM39 8V8.2H39.2V8H39ZM39 1.88136H39.2V1.68136H39V1.88136ZM37 1.88136H36.8V2.08136H37V1.88136ZM37 0H37.2V-0.2H37V0ZM20 0V-0.2H19.8V0H20ZM20 2V2.2H20.2V2H20ZM18 2V1.8H17.8V2H18ZM18 10V10.2H18.2V10H18ZM16 10V9.8H15.8V10H16ZM16 12V12.2H16.2V12H16ZM14 12V11.8H13.8049L13.8001 11.995L14 12ZM13.95 14V14.2H14.1451L14.1499 14.005L13.95 14ZM12 14V13.8H11.8V14H12ZM12 16V16.2H12.2V16H12ZM10 16V15.8H9.8V16H10ZM10 18V18.2H10.2V18H10ZM6 18H5.8V18.2H6V18ZM6 16H6.2V15.8H6V16ZM4 16H3.8V16.2H4V16ZM4 14H4.2V13.8H4V14ZM2 14H1.8V14.2H2V14ZM22 2V1.8H21.8V2H22ZM24 2H24.2V1.8H24V2ZM22 4H21.8V4.2H22V4ZM24 4V4.2H24.2V4H24ZM0 10.2H2V9.8H0V10.2ZM0.2 21V10H-0.2V21H0.2ZM2 20.8H0V21.2H2V20.8ZM2.2 23V21H1.8V23H2.2ZM4 22.8H2V23.2H4V22.8ZM4.2 25V23H3.8V25H4.2ZM6 24.8H4V25.2H6V24.8ZM6.2 27V25H5.8V27H6.2ZM8 26.8H6V27.2H8V26.8ZM8.2 29V27H7.8V29H8.2ZM10 28.8H8V29.2H10V28.8ZM10.2 37V29H9.8V37H10.2ZM14 36.8H10V37.2H14V36.8ZM13.8 35V37H14.2V35H13.8ZM12 35.2H14V34.8H12V35.2ZM11.8 33V35H12.2V33H11.8ZM14 32.8H12V33.2H14V32.8ZM13.8 31V33H14.2V31H13.8ZM16 30.8H14V31.2H16V30.8ZM15.8 29V31H16.2V29H15.8ZM18 28.8H16V29.2H18V28.8ZM18.2 31V29H17.8V31H18.2ZM20 30.8H18V31.2H20V30.8ZM20.2 37V31H19.8V37H20.2ZM24 36.8H20V37.2H24V36.8ZM23.8 35V37H24.2V35H23.8ZM22 35.2H24V34.8H22V35.2ZM21.8 29V35H22.2V29H21.8ZM24 28.8H22V29.2H24V28.8ZM23.8 27V29H24.2V27H23.8ZM26 26.8H24V27.2H26V26.8ZM25.8 23V27H26.2V23H25.8ZM28 22.8H26V23.2H28V22.8ZM27.8 18V23H28.2V18H27.8ZM30 17.8H28V18.2H30V17.8ZM30.2 20.0678V18H29.8V20.0678H30.2ZM32 19.8678H30V20.2678H32V19.8678ZM31.8 16V20.0678H32.2V16H31.8ZM28 16.2H32V15.8H28V16.2ZM27.8 12V16H28.2V12H27.8ZM35 11.8H28V12.2H35V11.8ZM34.8 10V12H35.2V10H34.8ZM28 10.2H35V9.8H28V10.2ZM27.8 8V10H28.2V8H27.8ZM39 7.8H28V8.2H39V7.8ZM38.8 1.88136V8H39.2V1.88136H38.8ZM37 2.08136H39V1.68136H37V2.08136ZM36.8 0V1.88136H37.2V0H36.8ZM20 0.2H37V-0.2H20V0.2ZM20.2 2V0H19.8V2H20.2ZM18 2.2H20V1.8H18V2.2ZM18.2 10V2H17.8V10H18.2ZM16 10.2H18V9.8H16V10.2ZM16.2 12V10H15.8V12H16.2ZM14 12.2H16V11.8H14V12.2ZM14.1499 14.005L14.1999 12.005L13.8001 11.995L13.7501 13.995L14.1499 14.005ZM12 14.2H13.95V13.8H12V14.2ZM12.2 16V14H11.8V16H12.2ZM10 16.2H12V15.8H10V16.2ZM10.2 18V16H9.8V18H10.2ZM6 18.2H10V17.8H6V18.2ZM5.8 16V18H6.2V16H5.8ZM4 16.2H6V15.8H4V16.2ZM3.8 14V16H4.2V14H3.8ZM2 14.2H4V13.8H2V14.2ZM1.8 10V14H2.2V10H1.8ZM22 2.2H24V1.8H22V2.2ZM22.2 4V2H21.8V4H22.2ZM24 3.8H22V4.2H24V3.8ZM23.8 2V4H24.2V2H23.8Z" fill="black" mask="url(#path-1-inside-1_37_6)"/>
</svg>
